<svg width="704" height="370" viewBox="0 0 704 370" fill="none" xmlns="http://www.w3.org/2000/svg">
<circle cx="232.845" cy="143.204" r="18.9584" fill="#F5F5F5" stroke="black"/>
<path d="M228.869 134.241L235.544 134.241L241.423 140.029L242.405 140.995L243.558 142.131L243.558 144.501L242.392 145.648L241.423 146.602L235.616 152.32L228.94 152.32L235.716 145.648L221.694 145.648L221.694 140.995L235.725 140.995L228.869 134.241Z" fill="black"/>
<circle cx="19.4584" cy="19.4584" r="18.9584" transform="matrix(-1 0 0 1 252.303 314.459)" fill="#F5F5F5" stroke="black"/>
<path d="M236.821 324.952L230.145 324.952L224.266 330.74L223.285 331.706L222.132 332.842L222.132 335.212L223.297 336.359L224.266 337.313L230.074 343.031L236.749 343.031L229.973 336.359L243.995 336.359L243.995 331.706L229.965 331.706L236.821 324.952Z" fill="black"/>
<circle cx="469.843" cy="143.204" r="18.9584" fill="#F5F5F5" stroke="black"/>
<path d="M465.867 134.241L472.543 134.241L478.421 140.029L479.403 140.995L480.556 142.131L480.556 144.501L479.39 145.648L478.421 146.602L472.614 152.32L465.938 152.32L472.714 145.648L458.692 145.648L458.692 140.995L472.723 140.995L465.867 134.241Z" fill="black"/>
<circle cx="671.86" cy="183.458" r="18.9584" transform="rotate(90 671.86 183.458)" fill="#F5F5F5" stroke="black"/>
<path d="M680.825 179.481V186.157L675.037 192.036L674.071 193.017L672.936 194.17H670.566L669.418 193.004L668.464 192.036L662.746 186.228V179.552L669.418 186.329V172.307H674.071V186.337L680.825 179.481Z" fill="black"/>
<circle cx="19.4584" cy="19.4584" r="18.9584" transform="matrix(-1 0 0 1 489.302 314.459)" fill="#F5F5F5" stroke="black"/>
<path d="M473.819 324.952L467.143 324.952L461.264 330.74L460.283 331.706L459.13 332.842L459.13 335.212L460.296 336.359L461.264 337.313L467.072 343.031L473.747 343.031L466.971 336.359L480.993 336.359L480.993 331.706L466.963 331.706L473.819 324.952Z" fill="black"/>
</svg>
