<svg width="459" height="186" viewBox="0 0 459 186" fill="none" xmlns="http://www.w3.org/2000/svg">
<g filter="url(#filter0_d_688_372)">
<rect x="101.755" y="30.1074" width="32.8358" height="96.3184" rx="6.5" transform="rotate(108.213 101.755 30.1074)" fill="white"/>
</g>
<rect x="98.2242" y="32.2347" width="27.4577" height="90.9403" rx="4.5" transform="rotate(108.213 98.2242 32.2347)" fill="#C8FF03" stroke="black"/>
<path d="M18.9117 28.0504L16.7574 27.3416L16.9159 13.4218L12.7678 26.0288L10.7331 25.3594L15.4917 10.8971L18.9027 12.0195L18.6287 25.2823L26.2835 14.448L29.6946 15.5704L24.936 30.0326L22.9013 29.3631L27.0495 16.756L18.9117 28.0504ZM30.0754 25.8209C29.1303 28.6934 30.3187 30.3225 31.9743 30.8672C33.63 31.412 35.5929 30.6872 36.4987 27.9344C37.4438 25.0619 36.2554 23.4328 34.5997 22.8881C32.9441 22.3433 31.0403 22.8886 30.0754 25.8209ZM35.1248 21.2922C37.6183 22.1127 39.7135 24.6812 38.4336 28.571C37.1537 32.4609 33.9427 33.2835 31.4492 32.4631C28.9558 31.6426 26.8606 29.0741 28.1405 25.1843C29.4204 21.2944 32.6313 20.4718 35.1248 21.2922ZM46.0494 24.8868C48.6826 25.7532 49.6417 28.2132 49.2972 30.1338L47.462 29.5299C47.6227 28.1679 46.821 26.9093 45.4047 26.4433C43.8088 25.9182 41.8992 26.6826 41.0132 29.3756C40.1205 32.0885 41.1834 33.8973 42.7793 34.4224C44.3152 34.9278 45.7138 34.2384 46.3407 33.2066L48.2158 33.8236C47.1738 35.7136 44.7078 36.8256 42.1943 35.9986C39.1024 34.9812 37.9553 32.0172 39.0317 28.7458C40.0819 25.5541 42.8777 23.8432 46.0494 24.8868ZM52.8758 23.1978L54.6911 23.795L51.8753 32.3527L57.7924 28.9496L60.0265 29.6847L54.4735 32.7876L57.0539 40.6005L54.8397 39.8719L52.817 33.7237L51.1139 34.6667L49.9325 38.2573L48.1172 37.66L52.8758 23.1978ZM63.8339 42.8313L64.3392 41.2953C63.3861 42.1092 62.1527 42.5655 60.3773 41.9814C57.9038 41.1675 57.4976 39.1768 58.3049 36.7232L60.5628 29.8611L62.3781 30.4584L60.2974 36.7819C59.7526 38.4376 59.5394 39.9592 61.5342 40.6155C63.2697 41.1866 64.6609 40.3179 65.4222 38.0039L67.365 32.0993L69.1803 32.6966L65.6491 43.4286L63.8339 42.8313ZM71.0626 33.3159L72.8778 33.9132L72.3199 35.6088C73.3523 34.6883 74.7123 34.3178 76.4477 34.8889C78.9213 35.7027 80.3532 38.4731 79.198 41.9839C78.0231 45.5546 75.2457 46.8736 72.7722 46.0597C71.0367 45.4887 70.1625 44.383 69.8783 43.0294L68.198 48.1361L66.3828 47.5388L71.0626 33.3159ZM71.0193 39.2928C70.0873 42.1255 71.2095 43.8212 72.8253 44.3528C74.6805 44.9632 76.3764 43.9074 77.2231 41.3341C78.0698 38.7608 77.3321 36.9042 75.477 36.2938C73.8612 35.7622 71.9513 36.4602 71.0193 39.2928ZM89.1126 42.7259L87.2176 42.1023C87.3384 40.7272 86.545 39.9135 85.2683 39.4934C84.2111 39.1455 82.8895 39.1307 82.5679 40.1082C82.2857 40.9659 82.7594 41.5419 83.7245 42.1026L85.1421 42.9006C86.9788 43.9029 88.4384 45.2454 87.7623 47.3C87.06 49.4344 84.7512 50.0012 82.2976 49.1939C79.485 48.2684 78.5195 45.8948 78.917 43.9475L80.832 44.5776C80.6784 46.0524 81.2471 47.1459 82.8429 47.671C84.2193 48.1239 85.5267 47.913 85.8615 46.8956C86.2225 45.7985 85.343 45.0449 84.2713 44.4048L82.7805 43.5606C81.4293 42.7623 80.0435 41.5989 80.7064 39.5841C81.33 37.6891 83.606 37.222 85.9798 38.0031C88.3137 38.771 89.4495 40.5597 89.1126 42.7259Z" fill="black"/>
<g filter="url(#filter1_d_688_372)">
<rect x="416.152" y="152.898" width="32.8358" height="111.642" rx="6.5" transform="rotate(102.887 416.152 152.898)" fill="white"/>
</g>
<rect x="412.931" y="154.923" width="27.4577" height="106.264" rx="4.5" transform="rotate(102.887 412.931 154.923)" fill="white" stroke="black"/>
<path d="M321.22 150.761L323.246 151.225C321.842 154.35 318.889 155.484 315.676 154.749C311.418 153.775 309.676 149.994 310.706 145.491C311.755 140.905 315.181 138.457 319.357 139.413C322.427 140.115 324.467 142.499 324.396 145.822L322.369 145.359C322.366 143.397 321.206 141.689 318.852 141.15C316.231 140.55 313.716 142.129 312.835 145.978C311.973 149.744 313.438 152.384 316.201 153.017C318.576 153.56 320.313 152.557 321.22 150.761ZM325.981 151.075C325.306 154.023 326.641 155.535 328.34 155.923C330.039 156.312 331.926 155.408 332.573 152.583C333.247 149.635 331.913 148.124 330.213 147.735C328.514 147.346 326.669 148.066 325.981 151.075ZM330.588 146.097C333.147 146.683 335.472 149.046 334.558 153.037C333.645 157.029 330.524 158.146 327.965 157.561C325.406 156.976 323.082 154.613 323.995 150.621C324.909 146.629 328.029 145.512 330.588 146.097ZM339.771 144.364L336.375 159.205L334.512 158.779L337.908 143.937L339.771 144.364ZM343.565 145.232L340.17 160.073L338.307 159.647L341.702 144.805L343.565 145.232ZM352.944 157.847L344.469 155.908C343.987 158.297 345.445 159.837 347.062 160.207C348.699 160.581 349.769 160.05 350.488 159.073L352.412 159.513C351.49 161.284 349.369 162.458 346.687 161.844C343.207 161.048 341.854 158.11 342.599 154.855C343.4 151.355 346.239 149.678 349.248 150.366C352.626 151.139 353.97 154.398 352.944 157.847ZM348.883 151.963C347.245 151.589 345.525 152.143 344.855 154.316L351.344 155.801C351.639 154.231 350.869 152.418 348.883 151.963ZM360.199 152.872C362.901 153.49 364.085 155.851 363.92 157.795L362.037 157.364C362.07 155.993 361.155 154.814 359.702 154.482C358.064 154.107 356.234 155.045 355.601 157.809C354.964 160.593 356.191 162.295 357.828 162.67C359.405 163.031 360.733 162.214 361.261 161.129L363.186 161.569C362.324 163.548 359.972 164.884 357.392 164.294C354.219 163.568 352.802 160.723 353.57 157.366C354.319 154.09 356.944 152.127 360.199 152.872ZM366.496 154.506L367.128 151.743L368.991 152.169L368.359 154.933L370.447 155.41L370.105 156.905L368.017 156.427L366.523 162.957C366.26 164.104 366.277 164.409 367.341 164.653L368.283 164.868L367.927 166.424L366.576 166.115C364.467 165.632 364.084 165.049 364.608 162.756L366.154 156.001L364.414 155.603L364.756 154.108L366.496 154.506ZM371.797 155.719L373.66 156.145L371.14 167.159L369.277 166.733L371.797 155.719ZM372.673 151.891L374.536 152.317L374.02 154.569L372.158 154.143L372.673 151.891ZM375.591 162.425C374.917 165.373 376.251 166.885 377.95 167.274C379.649 167.662 381.537 166.759 382.183 163.934C382.857 160.986 381.523 159.474 379.824 159.085C378.125 158.697 376.28 159.416 375.591 162.425ZM380.198 157.448C382.757 158.033 385.082 160.396 384.169 164.388C383.255 168.38 380.135 169.497 377.576 168.911C375.017 168.326 372.692 165.963 373.606 161.971C374.519 157.979 377.64 156.862 380.198 157.448ZM388.505 159.542L388.126 161.2C388.999 160.301 390.247 159.746 392.109 160.173C394.771 160.782 395.339 162.721 394.763 165.239L393.171 172.199L391.308 171.773L392.774 165.366C393.163 163.667 393.213 162.127 391.084 161.64C389.283 161.228 387.896 162.203 387.353 164.578L385.986 170.555L384.123 170.129L386.642 159.116L388.505 159.542ZM404.968 166.691L403.023 166.246C403.016 164.865 402.151 164.129 400.84 163.829C399.756 163.581 398.438 163.689 398.209 164.692C398.007 165.572 398.533 166.102 399.545 166.57L401.031 167.233C402.953 168.061 404.531 169.262 404.048 171.37C403.547 173.561 401.301 174.339 398.783 173.763C395.897 173.103 394.715 170.829 394.93 168.853L396.895 169.303C396.879 170.786 397.547 171.822 399.185 172.197C400.597 172.52 401.879 172.188 402.118 171.144C402.376 170.018 401.43 169.35 400.304 168.812L398.741 168.11C397.321 167.44 395.834 166.41 396.307 164.343C396.752 162.398 398.974 161.722 401.411 162.279C403.806 162.827 405.103 164.503 404.968 166.691Z" fill="black"/>
<g filter="url(#filter2_d_688_372)">
<rect x="446.747" y="58.9961" width="32.8358" height="105.075" rx="6.5" transform="rotate(68.475 446.747 58.9961)" fill="white"/>
</g>
<rect x="445.233" y="62.4884" width="27.4577" height="99.6965" rx="4.5" transform="rotate(68.475 445.233 62.4884)" fill="#FF4702" stroke="black"/>
<path d="M368.096 115.754L363.188 103.309L358.577 105.128L357.899 103.409L369.113 98.9861L369.791 100.705L365.18 102.524L370.089 114.968L368.096 115.754ZM381.006 105.266L372.919 108.456C373.871 110.699 375.944 111.146 377.487 110.537C379.05 109.921 379.632 108.878 379.673 107.666L381.509 106.942C381.749 108.924 380.662 111.091 378.103 112.1C374.782 113.41 372.006 111.751 370.781 108.645C369.463 105.304 370.858 102.316 373.73 101.183C376.953 99.9119 379.904 101.841 381.006 105.266ZM374.331 102.707C372.768 103.323 371.661 104.753 372.337 106.925L378.53 104.482C377.886 103.021 376.226 101.96 374.331 102.707ZM383.471 103.098L385.721 108.802L383.943 109.503L379.798 98.9932L381.575 98.292L382.2 99.8744C382.412 98.6392 383.088 97.4921 384.671 96.868C386.292 96.2285 387.5 96.5424 388.431 97.5296C388.755 95.8894 389.75 94.8647 391.235 94.2791C393.677 93.316 395.281 94.5794 396.229 96.9822L398.849 103.624L397.071 104.325L394.659 98.2108C394.02 96.5894 393.152 95.3061 391.218 96.0689C389.675 96.6776 389.141 98.2427 390.035 100.509L392.285 106.213L390.507 106.914L388.095 100.8C387.456 99.1783 386.588 97.895 384.654 98.6578C383.111 99.2665 382.577 100.832 383.471 103.098ZM396.391 92.4484L398.169 91.7472L398.824 93.4077C399.029 92.04 399.838 90.8857 401.538 90.2153C403.96 89.2599 406.832 90.4748 408.188 93.9131C409.568 97.4099 408.275 100.2 405.853 101.155C404.153 101.825 402.774 101.534 401.69 100.675L403.663 105.676L401.885 106.377L396.391 92.4484ZM400.179 97.0721C401.273 99.8462 403.22 100.433 404.802 99.8086C406.619 99.092 407.248 97.1959 406.254 94.6759C405.261 92.1558 403.506 91.1997 401.69 91.9163C400.107 92.5404 399.085 94.2981 400.179 97.0721ZM407.541 83.8292L413.128 97.9924L411.35 98.6936L405.764 84.5304L407.541 83.8292ZM419.86 90.2579L419.598 89.5937C416.498 91.1776 414.639 92.4751 415.209 93.9207C415.602 94.917 416.626 95.2807 417.896 94.7799C419.556 94.1249 420.838 92.7389 419.86 90.2579ZM418.06 96.3405C416.087 97.1187 414.014 96.672 413.251 94.738C412.273 92.257 414.793 90.4051 418.906 88.2411L418.806 87.9872C418.043 86.0532 416.742 85.8441 415.413 86.368C413.929 86.9536 413.397 88.0664 413.835 89.4061L411.998 90.1303C411.261 87.8026 412.792 85.7315 414.824 84.9301C417.734 83.7821 419.563 84.641 420.715 87.6181L421.651 90.0482C422.332 91.8336 422.88 92.9945 423.488 93.906L421.691 94.6149C421.478 94.2473 421.25 93.8406 420.984 93.2232C420.771 94.5714 419.935 95.6008 418.06 96.3405ZM421.269 82.6363L420.229 79.999L422.006 79.2979L423.047 81.9351L425.039 81.1492L425.602 82.5753L423.609 83.3612L426.067 89.593C426.498 90.687 426.684 90.9297 427.7 90.529L428.599 90.1746L429.185 91.6593L427.895 92.1678C425.883 92.9614 425.237 92.697 424.374 90.5091L421.831 84.0624L420.171 84.7173L419.608 83.2912L421.269 82.6363ZM437.625 82.935L429.537 86.1249C430.49 88.3679 432.562 88.8147 434.105 88.206C435.668 87.5896 436.25 86.5473 436.291 85.3347L438.128 84.6104C438.368 86.5926 437.281 88.7594 434.722 89.7688C431.401 91.0787 428.624 89.4196 427.399 86.3135C426.082 82.9729 427.477 79.9847 430.348 78.8521C433.572 77.5808 436.522 79.5097 437.625 82.935ZM430.949 80.3759C429.386 80.9923 428.28 82.422 428.956 84.5935L435.148 82.151C434.504 80.6894 432.844 79.6285 430.949 80.3759ZM445.537 76.6089L443.681 77.3409C442.895 76.2062 441.764 76.0877 440.514 76.5808C439.479 76.9892 438.453 77.8226 438.83 78.7799C439.162 79.6199 439.894 79.7599 440.995 79.5741L442.595 79.2816C444.648 78.8781 446.629 78.9774 447.422 80.9895C448.247 83.0798 446.834 84.9916 444.431 85.9393C441.676 87.0257 439.417 85.8177 438.477 84.0661L440.353 83.3264C441.177 84.5588 442.314 85.0361 443.877 84.4197C445.225 83.888 446.095 82.89 445.702 81.8937C445.278 80.8193 444.12 80.802 442.887 80.9949L441.201 81.2988C439.652 81.5487 437.842 81.5399 437.064 79.5669C436.332 77.711 437.784 75.8969 440.108 74.98C442.394 74.0785 444.411 74.7277 445.537 76.6089Z" fill="black"/>
<g filter="url(#filter3_d_688_372)">
<rect x="90.1406" y="66.9961" width="32.8358" height="87.5622" rx="6.5" transform="rotate(76.4916 90.1406 66.9961)" fill="white"/>
</g>
<rect x="88.1531" y="70.2416" width="27.4577" height="82.1841" rx="4.5" transform="rotate(76.4916 88.1531 70.2416)" fill="#FF4702" stroke="black"/>
<path d="M21.7973 108.035L18.6726 95.0282L13.8537 96.1859L13.422 94.389L25.1426 91.5733L25.5742 93.3702L20.7553 94.5279L23.88 107.535L21.7973 108.035ZM36.0442 99.4508L27.5907 101.482C28.221 103.835 30.2109 104.567 31.824 104.179C33.4575 103.787 34.1793 102.836 34.389 101.641L36.3084 101.18C36.2696 103.176 34.8913 105.17 32.2164 105.813C28.7451 106.647 26.2273 104.617 25.4474 101.37C24.6085 97.8785 26.4065 95.114 29.4081 94.3929C32.7773 93.5836 35.43 95.9052 36.0442 99.4508ZM29.7908 95.9856C28.1572 96.3781 26.8621 97.6395 27.2285 99.884L33.7013 98.329C33.2673 96.7919 31.7714 95.5098 29.7908 95.9856ZM44.0996 91.0579L41.6236 97.2033L47.1062 101.955L44.8805 102.49L40.8938 99.0201L38.9386 103.917L36.815 104.427L39.4992 97.8001L34.421 93.3831L36.6467 92.8484L40.229 95.9833L42.0169 91.5583L44.0996 91.0579ZM45.601 90.6973L44.9388 87.9407L46.797 87.4943L47.4592 90.2509L49.5419 89.7505L49.9 91.2411L47.8173 91.7415L49.3821 98.2551C49.6568 99.3986 49.8071 99.6648 50.8689 99.4098L51.8082 99.1841L52.181 100.736L50.8333 101.06C48.7302 101.565 48.1273 101.213 47.5779 98.9261L45.9591 92.1878L44.2235 92.6048L43.8654 91.1142L45.601 90.6973ZM60.128 98.8268L59.7503 97.2546C59.3675 98.448 58.5582 99.4847 56.7409 99.9213C54.209 100.53 52.8168 99.0498 52.2135 96.5383L50.526 89.5141L52.3842 89.0677L53.9391 95.5406C54.3463 97.2353 54.9649 98.6417 57.0068 98.1512C58.7833 97.7245 59.5099 96.254 58.9409 93.8854L57.4889 87.8414L59.3471 87.395L61.9861 98.3805L60.128 98.8268ZM66.7363 85.5767L67.2121 87.5573C66.8094 87.5893 66.4574 87.6522 66.1511 87.7258C64.4359 88.1379 63.8039 89.2832 64.3877 91.713L65.771 97.4712L63.9129 97.9176L61.2738 86.9321L63.0911 86.4956L63.5522 88.415C63.8043 87.037 64.745 86.0982 66.1801 85.6887C66.3638 85.6446 66.5068 85.6102 66.7363 85.5767ZM78.4775 89.2569L70.024 91.2877C70.6543 93.6416 72.6442 94.373 74.2573 93.9855C75.8908 93.5931 76.6127 92.6421 76.8223 91.4471L78.7417 90.986C78.7029 92.9823 77.3246 94.9764 74.6497 95.619C71.1785 96.4529 68.6606 94.4229 67.8807 91.1763C67.0419 87.6846 68.8399 84.9201 71.8415 84.1991C75.2106 83.3897 77.8633 85.7113 78.4775 89.2569ZM72.2241 85.7917C70.5906 86.1842 69.2954 87.4456 69.6618 89.6901L76.1347 88.1351C75.7006 86.598 74.2047 85.3159 72.2241 85.7917ZM87.1943 84.096L85.2545 84.562C84.6343 83.3287 83.5315 83.0537 82.2247 83.3677C81.1425 83.6277 80.0105 84.3099 80.2509 85.3105C80.4618 86.1885 81.1676 86.4293 82.2833 86.3988L83.9088 86.3323C85.9981 86.2191 87.9455 86.5936 88.4507 88.6968C88.9756 90.8816 87.3097 92.5777 84.7982 93.181C81.9191 93.8727 79.8498 92.3612 79.1641 90.4958L81.1243 90.0249C81.769 91.3602 82.8278 91.9914 84.4613 91.5989C85.8702 91.2605 86.8714 90.3936 86.6212 89.3522C86.3514 88.2292 85.2071 88.0506 83.959 88.0696L82.247 88.1354C80.6779 88.1667 78.8874 87.9058 78.392 85.8434C77.926 83.9036 79.6164 82.3097 82.0463 81.7259C84.4353 81.152 86.3419 82.0762 87.1943 84.096Z" fill="black"/>
<defs>
<filter id="filter0_d_688_372" x="0.203125" y="0.207031" width="101.348" height="60.8867" filterUnits="userSpaceOnUse" color-interpolation-filters="sRGB">
<feFlood flood-opacity="0" result="BackgroundImageFix"/>
<feColorMatrix in="SourceAlpha" type="matrix" values="0 0 0 0 0 0 0 0 0 0 0 0 0 0 0 0 0 0 127 0" result="hardAlpha"/>
<feMorphology radius="0.5" operator="dilate" in="SourceAlpha" result="effect1_dropShadow_688_372"/>
<feOffset/>
<feGaussianBlur stdDeviation="0.5"/>
<feComposite in2="hardAlpha" operator="out"/>
<feColorMatrix type="matrix" values="0 0 0 0 0 0 0 0 0 0 0 0 0 0 0 0 0 0 0.45 0"/>
<feBlend mode="normal" in2="BackgroundImageFix" result="effect1_dropShadow_688_372"/>
<feBlend mode="normal" in="SourceGraphic" in2="effect1_dropShadow_688_372" result="shape"/>
</filter>
<filter id="filter1_d_688_372" x="299.784" y="127.783" width="116.584" height="57.3398" filterUnits="userSpaceOnUse" color-interpolation-filters="sRGB">
<feFlood flood-opacity="0" result="BackgroundImageFix"/>
<feColorMatrix in="SourceAlpha" type="matrix" values="0 0 0 0 0 0 0 0 0 0 0 0 0 0 0 0 0 0 127 0" result="hardAlpha"/>
<feMorphology radius="0.5" operator="dilate" in="SourceAlpha" result="effect1_dropShadow_688_372"/>
<feOffset/>
<feGaussianBlur stdDeviation="0.5"/>
<feComposite in2="hardAlpha" operator="out"/>
<feColorMatrix type="matrix" values="0 0 0 0 0 0 0 0 0 0 0 0 0 0 0 0 0 0 0.45 0"/>
<feBlend mode="normal" in2="BackgroundImageFix" result="effect1_dropShadow_688_372"/>
<feBlend mode="normal" in="SourceGraphic" in2="effect1_dropShadow_688_372" result="shape"/>
</filter>
<filter id="filter2_d_688_372" x="349.431" y="59.4258" width="108.935" height="68.2383" filterUnits="userSpaceOnUse" color-interpolation-filters="sRGB">
<feFlood flood-opacity="0" result="BackgroundImageFix"/>
<feColorMatrix in="SourceAlpha" type="matrix" values="0 0 0 0 0 0 0 0 0 0 0 0 0 0 0 0 0 0 127 0" result="hardAlpha"/>
<feMorphology radius="0.5" operator="dilate" in="SourceAlpha" result="effect1_dropShadow_688_372"/>
<feOffset/>
<feGaussianBlur stdDeviation="0.5"/>
<feComposite in2="hardAlpha" operator="out"/>
<feColorMatrix type="matrix" values="0 0 0 0 0 0 0 0 0 0 0 0 0 0 0 0 0 0 0.45 0"/>
<feBlend mode="normal" in2="BackgroundImageFix" result="effect1_dropShadow_688_372"/>
<feBlend mode="normal" in="SourceGraphic" in2="effect1_dropShadow_688_372" result="shape"/>
</filter>
<filter id="filter3_d_688_372" x="4.83789" y="66.834" width="93.1357" height="52.7051" filterUnits="userSpaceOnUse" color-interpolation-filters="sRGB">
<feFlood flood-opacity="0" result="BackgroundImageFix"/>
<feColorMatrix in="SourceAlpha" type="matrix" values="0 0 0 0 0 0 0 0 0 0 0 0 0 0 0 0 0 0 127 0" result="hardAlpha"/>
<feMorphology radius="0.5" operator="dilate" in="SourceAlpha" result="effect1_dropShadow_688_372"/>
<feOffset/>
<feGaussianBlur stdDeviation="0.5"/>
<feComposite in2="hardAlpha" operator="out"/>
<feColorMatrix type="matrix" values="0 0 0 0 0 0 0 0 0 0 0 0 0 0 0 0 0 0 0.45 0"/>
<feBlend mode="normal" in2="BackgroundImageFix" result="effect1_dropShadow_688_372"/>
<feBlend mode="normal" in="SourceGraphic" in2="effect1_dropShadow_688_372" result="shape"/>
</filter>
</defs>
</svg>
