<svg width="60" height="1380" viewBox="0 0 60 1380" fill="none" xmlns="http://www.w3.org/2000/svg">
<circle cx="30" cy="30" r="29.25" transform="rotate(90 30 30)" fill="#F5F5F5" stroke="black" stroke-width="1.5"/>
<path d="M43.8221 23.87V34.1621L34.8979 43.2258L33.4084 44.7386L31.6579 46.5165H28.0042L26.2346 44.7192L24.7642 43.2258L15.9482 34.272V23.9799L26.2346 34.4271V12.8086H33.4084V34.4401L43.8221 23.87Z" fill="black"/>
<circle cx="30" cy="360" r="29.25" transform="rotate(90 30 360)" fill="#F5F5F5" stroke="black" stroke-width="1.5"/>
<path d="M43.8221 353.87V364.162L34.8979 373.226L33.4084 374.739L31.6579 376.516H28.0042L26.2346 374.719L24.7642 373.226L15.9482 364.272V353.98L26.2346 364.427V342.809H33.4084V364.44L43.8221 353.87Z" fill="black"/>
<circle cx="30" cy="690" r="29.25" transform="rotate(90 30 690)" fill="#F5F5F5" stroke="black" stroke-width="1.5"/>
<path d="M43.8221 683.87V694.162L34.8979 703.226L33.4084 704.739L31.6579 706.516H28.0042L26.2346 704.719L24.7642 703.226L15.9482 694.272V683.98L26.2346 694.427V672.809H33.4084V694.44L43.8221 683.87Z" fill="black"/>
<circle cx="30" cy="1020" r="29.25" transform="rotate(90 30 1020)" fill="#F5F5F5" stroke="black" stroke-width="1.5"/>
<path d="M43.8221 1013.87V1024.16L34.8979 1033.23L33.4084 1034.74L31.6579 1036.52H28.0042L26.2346 1034.72L24.7642 1033.23L15.9482 1024.27V1013.98L26.2346 1024.43V1002.81H33.4084V1024.44L43.8221 1013.87Z" fill="black"/>
<circle cx="30" cy="1350" r="29.25" transform="rotate(90 30 1350)" fill="#F5F5F5" stroke="black" stroke-width="1.5"/>
<path d="M43.8221 1343.87V1354.16L34.8979 1363.23L33.4084 1364.74L31.6579 1366.52H28.0042L26.2346 1364.72L24.7642 1363.23L15.9482 1354.27V1343.98L26.2346 1354.43V1332.81H33.4084V1354.44L43.8221 1343.87Z" fill="black"/>
</svg>
