<svg width="386" height="566" viewBox="0 0 386 566" fill="none" xmlns="http://www.w3.org/2000/svg">
<g filter="url(#filter0_d_708_348)">
<rect x="205.956" y="-0.000976562" width="75" height="220" rx="15" transform="rotate(69.4167 205.956 -0.000976562)" fill="white"/>
</g>
<rect x="202.8" y="8.66078" width="63" height="208" rx="12" transform="rotate(69.4167 202.8 8.66078)" fill="#C8FF03" stroke="black" stroke-width="2"/>
<path d="M55.6644 115.19L50.8114 117.013L31.159 91.9886L41.8242 120.388L37.2408 122.109L25.0062 89.5308L32.6902 86.6451L51.196 110.664L49.3164 80.4013L57.0004 77.5156L69.235 110.094L64.6516 111.815L53.9864 83.4159L55.6644 115.19ZM72.3589 95.2309C74.789 101.702 79.239 102.902 82.9686 101.501C86.6983 100.101 89.157 95.9982 86.8282 89.7971C84.3982 83.3263 79.9482 82.1262 76.2185 83.5268C72.4888 84.9275 69.8782 88.6254 72.3589 95.2309ZM74.8685 79.932C80.4855 77.8226 87.8963 79.3977 91.187 88.1602C94.4777 96.9226 89.9356 102.987 84.3187 105.096C78.7017 107.205 71.2908 105.63 68.0001 96.8678C64.7095 88.1054 69.2515 82.0414 74.8685 79.932ZM99.4778 70.6901C105.409 68.4626 110.641 71.4713 112.778 75.386L108.644 76.9386C106.98 74.282 103.749 73.1881 100.558 74.3862C96.9634 75.7363 94.6564 79.8329 96.9345 85.8992C99.2296 92.0105 103.714 93.7106 107.308 92.3605C110.768 91.0611 112.273 87.8301 111.912 85.0943L116.136 83.508C116.986 88.3672 114.186 93.8797 108.524 96.006C101.559 98.6217 95.2703 94.9842 92.5028 87.6148C89.8027 80.4251 92.3331 73.3733 99.4778 70.6901ZM109.22 57.905L113.309 56.3694L120.548 75.6468L126.216 61.1104L131.248 59.2204L125.8 72.7005L141.585 82.9233L136.598 84.7965L124.189 76.7406L122.506 80.8594L125.543 88.9478L121.454 90.4835L109.22 57.905ZM156.858 77.1877L155.559 73.7276C155.027 76.5425 153.483 79.1219 149.484 80.6238C143.912 82.7163 140.337 79.7517 138.261 74.2246L132.456 58.7667L136.546 57.2311L141.895 71.4757C143.296 75.2054 145.095 78.2214 149.588 76.5338C153.498 75.0657 154.732 71.5258 152.775 66.3132L147.779 53.0122L151.869 51.4766L160.948 75.652L156.858 77.1877ZM156.109 49.8842L160.198 48.3486L161.632 52.1681C162.153 49.0499 164.045 46.4423 167.955 44.9741C173.527 42.8816 180.045 45.7661 183.015 53.6748C186.036 61.7183 182.977 68.0456 177.405 70.1381C173.495 71.6063 170.355 70.8887 167.91 68.8842L172.23 80.3878L168.141 81.9235L156.109 49.8842ZM164.591 60.5937C166.988 66.9746 171.415 68.3882 175.055 67.0213C179.234 65.4519 180.743 61.1422 178.566 55.3455C176.389 49.5488 172.416 47.2978 168.237 48.8672C164.598 50.2341 162.195 54.2128 164.591 60.5937ZM201.74 40.7977L197.471 42.4008C195.717 39.7781 193.138 39.4647 190.262 40.5447C187.881 41.4391 185.505 43.3054 186.332 45.5072C187.058 47.4395 188.726 47.787 191.249 47.4038L194.917 46.7953C199.624 45.9504 204.147 46.2516 205.885 50.88C207.691 55.6881 204.39 60.0043 198.862 62.0799C192.526 64.4593 187.407 61.6135 185.327 57.5751L189.64 55.9551C191.479 58.8025 194.058 59.9361 197.653 58.5861C200.753 57.4217 202.78 55.1736 201.92 52.8818C200.992 50.4104 198.346 50.3274 195.52 50.722L191.655 51.353C188.105 51.8659 183.97 51.778 182.265 47.2395C180.662 42.9706 184.048 38.8791 189.395 36.871C194.653 34.8965 199.238 36.4562 201.74 40.7977Z" fill="black"/>
<g filter="url(#filter1_d_708_348)">
<rect x="382.061" y="116.272" width="75" height="200" rx="15" transform="rotate(103.672 382.061 116.272)" fill="white"/>
</g>
<rect x="374.812" y="120.686" width="63" height="188" rx="12" transform="rotate(103.672 374.812 120.686)" fill="#FF4702" stroke="black" stroke-width="2"/>
<path d="M200.308 128.666L207.535 98.9564L196.528 96.279L197.527 92.1746L224.298 98.6868L223.3 102.791L212.293 100.114L205.066 129.823L200.308 128.666ZM238.24 126.086L218.931 121.389C217.755 126.834 221.037 130.399 224.722 131.295C228.453 132.202 230.913 131.023 232.587 128.812L236.971 129.878C234.808 133.897 229.924 136.512 223.814 135.026C215.885 133.097 212.885 126.341 214.689 118.925C216.629 110.95 223.171 107.206 230.027 108.874C237.723 110.746 240.693 118.236 238.24 126.086ZM229.142 112.512C225.411 111.604 221.461 112.817 219.862 117.763L234.647 121.359C235.369 117.781 233.666 113.612 229.142 112.512ZM263.382 117.432L251.931 127.342L258.118 142.728L253.034 141.492L248.55 130.274L239.462 138.19L234.611 137.01L246.988 126.337L241.274 112.054L246.358 113.291L250.369 123.405L258.624 116.274L263.382 117.432ZM266.811 118.266L268.343 111.97L272.587 113.002L271.055 119.298L275.813 120.456L274.985 123.86L270.227 122.703L266.608 137.581C265.973 140.193 266.001 140.891 268.426 141.481L270.571 142.003L269.709 145.548L266.631 144.799C261.827 143.63 260.968 142.285 262.239 137.062L265.983 121.671L262.019 120.706L262.847 117.302L266.811 118.266ZM287.861 149.963L288.735 146.372C286.71 148.399 283.982 149.662 279.831 148.652C274.048 147.246 272.762 142.783 274.158 137.046L278.061 121.002L282.305 122.035L278.708 136.82C277.767 140.691 277.556 144.196 282.22 145.331C286.278 146.318 289.291 144.087 290.607 138.676L293.965 124.871L298.209 125.903L292.105 150.996L287.861 149.963ZM315.132 129.921L314.032 134.445C313.18 134.09 312.398 133.85 311.698 133.68C307.781 132.727 305.3 134.396 303.95 139.946L300.75 153.099L296.506 152.066L302.61 126.974L306.761 127.984L305.694 132.368C307.646 129.829 310.539 128.903 313.884 129.568C314.304 129.67 314.63 129.75 315.132 129.921ZM335.163 149.663L315.854 144.966C314.678 150.41 317.961 153.975 321.645 154.872C325.376 155.779 327.837 154.599 329.511 152.388L333.895 153.455C331.732 157.473 326.847 160.089 320.738 158.603C312.809 156.674 309.809 149.918 311.613 142.502C313.553 134.526 320.095 130.783 326.951 132.45C334.647 134.322 337.616 141.812 335.163 149.663ZM326.066 136.088C322.335 135.181 318.384 136.393 316.786 141.34L331.571 144.936C332.293 141.357 330.59 137.189 326.066 136.088ZM358.276 148.27L353.845 147.193C353.871 144.038 351.916 142.327 348.931 141.601C346.459 141 343.445 141.205 342.89 143.49C342.402 145.496 343.585 146.722 345.886 147.825L349.26 149.387C353.627 151.339 357.195 154.133 356.027 158.937C354.813 163.928 349.655 165.637 343.918 164.241C337.342 162.642 334.712 157.408 335.266 152.899L339.743 153.988C339.66 157.376 341.154 159.765 344.885 160.673C348.103 161.456 351.044 160.738 351.622 158.36C352.246 155.795 350.106 154.237 347.548 152.972L343.999 151.318C340.776 149.744 337.407 147.344 338.553 142.633C339.631 138.202 344.733 136.726 350.283 138.076C355.74 139.404 358.651 143.274 358.276 148.27Z" fill="black"/>
<g filter="url(#filter2_d_708_348)">
<rect x="263.29" y="390.849" width="75" height="255" rx="15" transform="rotate(95.8178 263.29 390.849)" fill="white"/>
</g>
<rect x="256.713" y="396.21" width="63" height="243" rx="12" transform="rotate(95.8178 256.713 396.21)" fill="white" stroke="black" stroke-width="2"/>
<path d="M47.4922 413L52.2197 413.482C49.9131 420.967 43.5353 424.37 36.0382 423.606C26.1056 422.594 21.0914 414.508 22.1618 404.002C23.2517 393.306 30.3326 386.79 40.0742 387.782C47.2371 388.512 52.5344 393.346 53.3083 400.903L48.5808 400.422C48.0208 395.974 44.9086 392.424 39.417 391.865C33.3046 391.242 28.0428 395.531 27.1281 404.508C26.2328 413.295 30.2965 418.871 36.7431 419.528C42.2824 420.093 45.9414 417.329 47.4922 413ZM58.3808 412.373C57.6801 419.249 61.1324 422.303 65.0959 422.707C69.0593 423.11 73.0857 420.529 73.7572 413.939C74.4578 407.063 71.0055 404.009 67.0421 403.605C63.0786 403.202 59.096 405.353 58.3808 412.373ZM67.4313 399.785C73.4004 400.393 79.3379 405.1 78.3892 414.411C77.4404 423.723 70.6757 427.135 64.7066 426.527C58.7375 425.919 52.8 421.213 53.7487 411.901C54.6975 402.589 61.4622 399.177 67.4313 399.785ZM87.773 393.27L84.2455 427.89L79.9 427.448L83.4275 392.827L87.773 393.27ZM96.6241 394.171L93.0966 428.792L88.7511 428.349L92.2786 393.729L96.6241 394.171ZM121.448 420.15L101.678 418.135C101.257 423.689 104.996 426.772 108.768 427.156C112.588 427.546 114.864 426.041 116.221 423.622L120.709 424.079C119.116 428.355 114.634 431.614 108.379 430.977C100.261 430.149 96.3656 423.866 97.1392 416.274C97.9712 408.108 103.941 403.505 110.96 404.22C118.839 405.023 122.805 412.037 121.448 420.15ZM110.581 407.945C106.76 407.556 103.013 409.297 102.105 414.415L117.243 415.958C117.469 412.314 115.213 408.417 110.581 407.945ZM136.505 406.823C142.808 407.465 146.157 412.487 146.33 416.943L141.936 416.496C141.627 413.376 139.22 410.96 135.829 410.614C132.009 410.225 128.121 412.868 127.464 419.315C126.802 425.809 130.063 429.326 133.883 429.715C137.56 430.09 140.344 427.865 141.237 425.254L145.726 425.711C144.327 430.442 139.367 434.134 133.35 433.521C125.949 432.767 121.934 426.713 122.732 418.881C123.51 411.241 128.912 406.05 136.505 406.823ZM151.247 408.76L151.904 402.313L156.25 402.756L155.593 409.202L160.464 409.699L160.108 413.185L155.238 412.688L153.686 427.921C153.413 430.596 153.536 431.284 156.019 431.537L158.216 431.76L157.846 435.39L154.694 435.068C149.776 434.567 148.742 433.352 149.287 428.004L150.892 412.245L146.833 411.832L147.188 408.346L151.247 408.76ZM163.613 410.02L167.959 410.462L165.341 436.153L160.996 435.71L163.613 410.02ZM164.523 401.09L168.869 401.533L168.334 406.785L163.988 406.343L164.523 401.09ZM174.107 424.164C173.406 431.04 176.858 434.094 180.822 434.498C184.785 434.902 188.812 432.321 189.483 425.731C190.184 418.854 186.731 415.801 182.768 415.397C178.804 414.993 174.822 417.144 174.107 424.164ZM183.157 411.577C189.126 412.185 195.064 416.891 194.115 426.203C193.166 435.514 186.402 438.926 180.432 438.318C174.463 437.71 168.526 433.004 169.475 423.692C170.423 414.38 177.188 410.968 183.157 411.577ZM202.589 413.991L202.195 417.859C203.923 415.574 206.596 413.965 210.942 414.408C217.15 415.04 218.985 419.28 218.387 425.154L216.733 441.39L212.387 440.947L213.91 426C214.314 422.037 213.996 418.53 209.029 418.024C204.827 417.596 201.956 420.199 201.392 425.738L199.971 439.682L195.626 439.239L198.244 413.548L202.589 413.991ZM241.943 425.576L237.407 425.113C237.002 421.984 234.832 420.557 231.775 420.245C229.244 419.988 226.287 420.603 226.048 422.943C225.839 424.996 227.179 426.049 229.609 426.828L233.165 427.914C237.757 429.25 241.674 431.531 241.173 436.45C240.653 441.559 235.776 443.957 229.903 443.359C223.17 442.673 219.85 437.847 219.782 433.305L224.366 433.772C224.747 437.14 226.553 439.302 230.373 439.691C233.668 440.027 236.483 438.915 236.731 436.479C236.999 433.853 234.666 432.602 231.959 431.699L228.217 430.546C224.809 429.427 221.144 427.509 221.636 422.686C222.098 418.15 226.95 415.99 232.632 416.569C238.219 417.139 241.633 420.574 241.943 425.576Z" fill="black"/>
<g filter="url(#filter3_d_708_348)">
<rect x="352.758" y="393.001" width="75" height="240" rx="15" transform="rotate(64.0251 352.758 393.001)" fill="white"/>
</g>
<rect x="349.992" y="401.023" width="63" height="228" rx="12" transform="rotate(64.0251 349.992 401.023)" fill="#FF4702" stroke="black" stroke-width="2"/>
<path d="M183.858 536.467L170.466 508.98L160.283 513.941L158.433 510.144L183.202 498.077L185.052 501.874L174.868 506.835L188.259 534.323L183.858 536.467ZM211.419 510.279L193.554 518.982C196.122 523.925 200.924 524.575 204.333 522.914C207.785 521.233 208.927 518.754 208.805 515.984L212.862 514.007C213.76 518.482 211.668 523.613 206.015 526.367C198.679 529.94 192.058 526.652 188.716 519.791C185.121 512.412 187.77 505.355 194.113 502.265C201.233 498.796 208.299 502.669 211.419 510.279ZM195.753 505.631C192.3 507.313 190.032 510.767 191.958 515.595L205.637 508.931C203.909 505.715 199.938 503.591 195.753 505.631ZM216.65 504.9L222.789 517.5L218.862 519.414L207.552 496.198L211.479 494.285L213.181 497.78C213.447 494.928 214.785 492.194 218.28 490.491C221.861 488.746 224.669 489.247 226.966 491.332C227.413 487.537 229.499 485.025 232.779 483.427C238.173 480.799 242.053 483.394 244.639 488.702L251.787 503.373L247.86 505.286L241.28 491.78C239.535 488.198 237.331 485.428 233.059 487.509C229.65 489.17 228.71 492.831 231.149 497.837L237.288 510.437L233.361 512.35L226.781 498.843C225.036 495.262 222.832 492.491 218.56 494.573C215.151 496.233 214.212 499.895 216.65 504.9ZM244.205 478.341L248.132 476.428L249.919 480.096C250.145 476.942 251.783 474.168 255.537 472.339C260.888 469.733 267.649 471.992 271.349 479.587C275.112 487.311 272.661 493.897 267.31 496.504C263.556 498.333 260.362 497.914 257.739 496.148L263.121 507.195L259.195 509.108L244.205 478.341ZM253.657 488.206C256.642 494.333 261.183 495.325 264.678 493.622C268.691 491.667 269.789 487.234 267.077 481.668C264.365 476.101 260.198 474.234 256.185 476.189C252.689 477.892 250.671 482.078 253.657 488.206ZM268.086 456.722L283.327 488.007L279.4 489.92L264.159 458.635L268.086 456.722ZM297.297 469.187L296.582 467.72C289.798 471.879 285.793 475.166 287.349 478.359C288.421 480.56 290.819 481.207 293.623 479.84C297.291 478.053 299.967 474.668 297.297 469.187ZM294.274 483.368C289.916 485.491 285.114 484.84 283.033 480.568C280.363 475.088 285.778 470.421 294.766 464.761L294.493 464.2C292.412 459.928 289.409 459.682 286.475 461.112C283.195 462.709 282.18 465.339 283.416 468.315L279.36 470.291C277.267 465.117 280.388 460.126 284.876 457.939C291.305 454.807 295.625 456.44 298.777 463.02L301.341 468.392C303.211 472.34 304.666 474.888 306.213 476.857L302.243 478.791C301.693 477.991 301.101 477.105 300.385 475.745C300.138 478.856 298.417 481.35 294.274 483.368ZM299.157 451.569L296.319 445.744L300.245 443.831L303.084 449.656L307.485 447.512L309.02 450.662L304.618 452.806L311.324 466.571C312.502 468.988 312.969 469.508 315.213 468.415L317.198 467.448L318.795 470.727L315.947 472.115C311.503 474.28 309.984 473.792 307.629 468.959L300.691 454.719L297.024 456.506L295.489 453.356L299.157 451.569ZM336.482 449.349L318.617 458.053C321.185 462.995 325.987 463.646 329.396 461.985C332.848 460.303 333.99 457.825 333.868 455.054L337.925 453.078C338.823 457.553 336.731 462.683 331.078 465.437C323.742 469.011 317.121 465.723 313.779 458.862C310.184 451.483 312.833 444.426 319.176 441.335C326.296 437.867 333.362 441.739 336.482 449.349ZM320.816 444.701C317.364 446.383 315.095 449.837 317.021 454.666L330.7 448.002C328.972 444.785 325.001 442.662 320.816 444.701ZM353.39 433.53L349.29 435.527C347.298 433.081 344.701 433.011 341.939 434.357C339.652 435.471 337.462 437.552 338.493 439.667C339.397 441.522 341.091 441.711 343.566 441.093L347.16 440.142C351.768 438.859 356.299 438.734 358.464 443.178C360.713 447.796 357.832 452.403 352.525 454.989C346.44 457.953 341.076 455.601 338.625 451.776L342.768 449.757C344.866 452.42 347.54 453.306 350.992 451.624C353.97 450.173 355.776 447.745 354.704 445.544C353.548 443.171 350.906 443.337 348.13 443.995L344.341 444.986C340.855 445.831 336.73 446.132 334.607 441.773C332.61 437.674 335.596 433.282 340.731 430.781C345.78 428.321 350.491 429.443 353.39 433.53Z" fill="black"/>
<defs>
<filter id="filter0_d_708_348" x="2.19982" y="2.19787" width="227.925" height="143.159" filterUnits="userSpaceOnUse" color-interpolation-filters="sRGB">
<feFlood flood-opacity="0" result="BackgroundImageFix"/>
<feColorMatrix in="SourceAlpha" type="matrix" values="0 0 0 0 0 0 0 0 0 0 0 0 0 0 0 0 0 0 127 0" result="hardAlpha"/>
<feOffset/>
<feGaussianBlur stdDeviation="1.05634"/>
<feComposite in2="hardAlpha" operator="out"/>
<feColorMatrix type="matrix" values="0 0 0 0 0 0 0 0 0 0 0 0 0 0 0 0 0 0 0.35 0"/>
<feBlend mode="normal" in2="BackgroundImageFix" result="effect1_dropShadow_708_348"/>
<feBlend mode="normal" in="SourceGraphic" in2="effect1_dropShadow_708_348" result="shape"/>
</filter>
<filter id="filter1_d_708_348" x="171.005" y="70.0055" width="210.052" height="118.137" filterUnits="userSpaceOnUse" color-interpolation-filters="sRGB">
<feFlood flood-opacity="0" result="BackgroundImageFix"/>
<feColorMatrix in="SourceAlpha" type="matrix" values="0 0 0 0 0 0 0 0 0 0 0 0 0 0 0 0 0 0 127 0" result="hardAlpha"/>
<feOffset/>
<feGaussianBlur stdDeviation="1.05634"/>
<feComposite in2="hardAlpha" operator="out"/>
<feColorMatrix type="matrix" values="0 0 0 0 0 0 0 0 0 0 0 0 0 0 0 0 0 0 0.35 0"/>
<feBlend mode="normal" in2="BackgroundImageFix" result="effect1_dropShadow_708_348"/>
<feBlend mode="normal" in="SourceGraphic" in2="effect1_dropShadow_708_348" result="shape"/>
</filter>
<filter id="filter2_d_708_348" x="1.33068" y="364.33" width="262.63" height="101.803" filterUnits="userSpaceOnUse" color-interpolation-filters="sRGB">
<feFlood flood-opacity="0" result="BackgroundImageFix"/>
<feColorMatrix in="SourceAlpha" type="matrix" values="0 0 0 0 0 0 0 0 0 0 0 0 0 0 0 0 0 0 127 0" result="hardAlpha"/>
<feOffset/>
<feGaussianBlur stdDeviation="1.05634"/>
<feComposite in2="hardAlpha" operator="out"/>
<feColorMatrix type="matrix" values="0 0 0 0 0 0 0 0 0 0 0 0 0 0 0 0 0 0 0.35 0"/>
<feBlend mode="normal" in2="BackgroundImageFix" result="effect1_dropShadow_708_348"/>
<feBlend mode="normal" in="SourceGraphic" in2="effect1_dropShadow_708_348" result="shape"/>
</filter>
<filter id="filter3_d_708_348" x="139.939" y="395.939" width="242.728" height="166.662" filterUnits="userSpaceOnUse" color-interpolation-filters="sRGB">
<feFlood flood-opacity="0" result="BackgroundImageFix"/>
<feColorMatrix in="SourceAlpha" type="matrix" values="0 0 0 0 0 0 0 0 0 0 0 0 0 0 0 0 0 0 127 0" result="hardAlpha"/>
<feOffset/>
<feGaussianBlur stdDeviation="1.05634"/>
<feComposite in2="hardAlpha" operator="out"/>
<feColorMatrix type="matrix" values="0 0 0 0 0 0 0 0 0 0 0 0 0 0 0 0 0 0 0.35 0"/>
<feBlend mode="normal" in2="BackgroundImageFix" result="effect1_dropShadow_708_348"/>
<feBlend mode="normal" in="SourceGraphic" in2="effect1_dropShadow_708_348" result="shape"/>
</filter>
</defs>
</svg>
