<svg width="156" height="177" viewBox="0 0 156 177" fill="none" xmlns="http://www.w3.org/2000/svg">
<path d="M100.817 29.4887H51.8193L56.9971 5.89174C57.7486 2.44988 60.7997 0 64.3167 0H88.064C91.5509 0 94.587 2.41231 95.3685 5.81659L100.817 29.4887Z" fill="#FF4702"/>
<path d="M114.388 88.5032H38.8555L45.3409 58.9844H107.602L114.388 88.5032Z" fill="#FF4702"/>
<path d="M153.128 177H2.83629C0.874885 177 -0.492841 175.061 0.168476 173.212L6.13536 156.536C6.38335 155.845 7.03716 155.387 7.77363 155.387H22.3602C23.4198 155.387 24.3366 154.65 24.5621 153.613L32.3851 117.992H121.174L129.373 153.636C129.606 154.658 130.516 155.387 131.568 155.387H145.568C146.222 155.387 146.816 155.747 147.116 156.326L155.646 172.866C156.623 174.753 155.255 177 153.128 177Z" fill="#FF4702"/>
</svg>
