<svg width="43" height="48" viewBox="0 0 43 48" fill="none" xmlns="http://www.w3.org/2000/svg">
<path d="M27.7551 8.11854L14.2656 8.11854L15.6911 1.62205C15.898 0.674477 16.738 0 17.7063 0L24.2441 0C25.2041 0 26.04 0.664132 26.2552 1.60136L27.7551 8.11854Z" fill="black"/>
<path d="M31.4922 24.0018L10.6973 24.0018L12.4828 15.875L29.624 15.875L31.4922 24.0018Z" fill="black"/>
<path d="M42.1577 47.9993L0.780859 47.9993C0.240865 47.9993 -0.135684 47.4655 0.0463831 46.9565L1.68913 42.3655C1.7574 42.1752 1.9374 42.049 2.14016 42.049H6.15598C6.4477 42.049 6.70011 41.8462 6.76218 41.5607L8.91595 31.7539L33.3605 31.7539L35.6177 41.5669C35.6819 41.8483 35.9322 42.049 36.2219 42.049H40.0763C40.2563 42.049 40.4198 42.1483 40.5025 42.3076L42.8508 46.8613C43.1197 47.3806 42.7432 47.9993 42.1577 47.9993Z" fill="black"/>
</svg>
