<svg width="248" height="182" viewBox="0 0 248 182" fill="none" xmlns="http://www.w3.org/2000/svg">
<g filter="url(#filter0_d_636_348)">
<rect x="240.001" y="1.00781" width="75" height="240" rx="15" transform="rotate(84.7715 240.001 1.00781)" fill="white"/>
</g>
<rect x="234.573" y="7.52837" width="63" height="228" rx="12" transform="rotate(84.7715 234.573 7.52837)" fill="white" stroke="black" stroke-width="2"/>
<path d="M22.7071 37.9178L33.5578 36.9249C42.0185 36.1507 48.1207 37.5203 48.9036 46.0766C49.691 54.6806 43.9343 57.0872 35.4737 57.8614L29.4986 58.4082L30.754 72.1269L25.8784 72.573L22.7071 37.9178ZM34.3164 41.0007L27.9589 41.5825L29.1093 54.154L35.4668 53.5722C40.5814 53.1042 44.4529 52.2197 43.9324 46.5315C43.4163 40.891 39.431 40.5327 34.3164 41.0007ZM66.2807 58.0308L66.1319 56.4055C58.3149 57.8921 53.4052 59.5464 53.7289 63.0836C53.952 65.5214 55.9649 66.976 59.0719 66.6917C63.135 66.3199 66.8362 64.1014 66.2807 58.0308ZM58.4309 70.2208C53.603 70.6626 49.3429 68.3532 48.9098 63.621C48.3543 57.5504 55.0713 55.1041 65.4824 52.9945L65.4255 52.3731C64.9925 47.6409 62.2713 46.3475 59.0209 46.645C55.3881 46.9774 53.5076 49.0775 53.6095 52.2976L49.1163 52.7088C48.9913 47.1289 53.6782 43.567 58.6494 43.1121C65.7717 42.4604 69.2327 45.5177 69.8497 52.7877L70.3443 58.7193C70.6946 63.0735 71.1526 65.9718 71.9015 68.3615L67.5039 68.7639C67.273 67.8211 67.0333 66.7826 66.8456 65.2573C65.5131 68.0785 63.0197 69.8009 58.4309 70.2208ZM83.6383 40.9218C89.9479 40.3444 94.1962 44.6311 95.2201 48.9719L90.8224 49.3743C89.9211 46.3719 87.0952 44.4615 83.7014 44.7721C79.8774 45.122 76.5679 48.4615 77.1585 54.9145C77.7533 61.4154 81.6271 64.2421 85.4511 63.8922C89.1317 63.5554 91.4377 60.8379 91.8141 58.1042L96.3073 57.6931C95.8409 62.604 91.6804 67.1782 85.6576 67.7293C78.2486 68.4073 73.148 63.2346 72.4306 55.3954C71.7307 47.7473 76.038 41.6173 83.6383 40.9218ZM96.4178 31.1727L100.768 30.7746L102.644 51.2809L111.958 38.7641L117.312 38.2742L108.488 49.8303L121.004 63.8682L115.698 64.3538L105.866 53.2998L103.152 56.8258L103.939 65.4298L99.589 65.8279L96.4178 31.1727ZM136.179 51.6344L136.031 50.0092C128.213 51.4957 123.304 53.15 123.627 56.6873C123.851 59.1251 125.863 60.5797 128.971 60.2954C133.034 59.9236 136.735 57.7051 136.179 51.6344ZM128.329 63.8245C123.502 64.2663 119.241 61.9569 118.808 57.2246C118.253 51.154 124.97 48.7077 135.381 46.5982L135.324 45.9768C134.891 41.2446 132.17 39.9512 128.919 40.2486C125.287 40.581 123.406 42.6811 123.508 45.9013L119.015 46.3124C118.89 40.7326 123.577 37.1707 128.548 36.7158C135.67 36.064 139.131 39.1213 139.748 46.3914L140.243 52.323C140.593 56.6772 141.051 59.5755 141.8 61.9652L137.402 62.3676C137.172 61.4247 136.932 60.3862 136.744 58.861C135.412 61.6822 132.918 63.4046 128.329 63.8245ZM160.592 38.4107L160.22 34.3477L164.57 33.9496L166.609 56.2245C167.085 61.4348 166.331 63.7211 164.998 65.4819C163.33 67.8035 160.241 69.3394 156.417 69.6893C150.538 70.2273 146.421 67.9048 145.132 62.7689L149.768 62.3446C150.504 64.5909 152.148 66.2239 156.115 65.8609C158.457 65.6466 160.121 64.8677 161.198 63.4677C162.01 62.333 162.674 61.1636 162.351 57.6264L162.128 55.1886C160.8 58.0575 158.519 60.0014 154.361 60.382C148.672 60.9025 143.042 56.7905 142.285 48.521C141.533 40.2994 146.319 35.186 152.007 34.6654C156.166 34.2849 158.766 35.8304 160.592 38.4107ZM161.549 46.7582C160.954 40.2574 157.272 37.9433 153.448 38.2933C149.194 38.6826 146.48 42.2085 147.018 48.088C147.56 54.0152 150.869 56.9901 155.123 56.6008C158.947 56.2508 162.148 53.3069 161.549 46.7582ZM169.048 33.5398L173.398 33.1418L175.751 58.8583L171.401 59.2564L169.048 33.5398ZM168.23 24.6012L172.58 24.2031L173.061 29.4612L168.711 29.8592L168.23 24.6012ZM182.258 32.331L182.612 36.2029C183.871 33.6294 186.186 31.5378 190.536 31.1397C196.75 30.5711 199.364 34.3807 199.902 40.2602L201.389 56.5123L197.039 56.9103L195.67 41.9488C195.307 37.9814 194.323 34.601 189.352 35.0559C185.145 35.4409 182.827 38.5451 183.334 44.0899L184.611 58.0476L180.261 58.4456L177.908 32.7291L182.258 32.331ZM220.828 32.8986L220.456 28.8355L224.806 28.4375L226.844 50.7124C227.321 55.9227 226.566 58.209 225.233 59.9698C223.566 62.2914 220.477 63.8272 216.653 64.1772C210.774 64.7152 206.657 62.3927 205.367 57.2568L210.004 56.8325C210.74 59.0788 212.384 60.7118 216.351 60.3488C218.693 60.1344 220.357 59.3556 221.434 57.9556C222.246 56.8209 222.91 55.6515 222.586 52.1143L222.363 49.6765C221.035 52.5454 218.755 54.4893 214.596 54.8699C208.908 55.3904 203.278 51.2784 202.521 43.0089C201.769 34.7873 206.555 29.6738 212.243 29.1533C216.402 28.7728 219.001 30.3183 220.828 32.8986ZM221.785 41.2461C221.19 34.7453 217.508 32.4312 213.684 32.7811C209.429 33.1704 206.715 36.6964 207.253 42.5759C207.796 48.5031 211.105 51.4779 215.359 51.0886C219.183 50.7387 222.384 47.7948 221.785 41.2461Z" fill="black"/>
<g filter="url(#filter1_d_636_348)">
<rect x="243.918" y="104.664" width="75" height="170" rx="15" transform="rotate(90 243.918 104.664)" fill="white"/>
</g>
<rect x="237.918" y="110.664" width="63" height="158" rx="12" transform="rotate(90 237.918 110.664)" fill="white" stroke="black" stroke-width="2"/>
<path d="M122.03 159.664H114.878L98.942 129.952V159.664H94.046V124.864H101.246L117.134 154.48V124.864H122.03V159.664ZM143.48 148.864V147.232C135.56 148 130.52 149.2 130.52 152.752C130.52 155.2 132.392 156.832 135.512 156.832C139.592 156.832 143.48 154.96 143.48 148.864ZM134.552 160.288C129.704 160.288 125.672 157.6 125.672 152.848C125.672 146.752 132.584 144.928 143.144 143.776V143.152C143.144 138.4 140.552 136.864 137.288 136.864C133.64 136.864 131.576 138.784 131.384 142H126.872C127.256 136.432 132.248 133.312 137.24 133.312C144.392 133.312 147.56 136.672 147.512 143.968L147.464 149.92C147.416 154.288 147.608 157.216 148.136 159.664H143.72C143.576 158.704 143.432 157.648 143.384 156.112C141.8 158.8 139.16 160.288 134.552 160.288ZM152.869 133.84V127.36H157.237V133.84H162.133V137.344H157.237V152.656C157.237 155.344 157.429 156.016 159.925 156.016H162.133V159.664H158.965C154.021 159.664 152.869 158.56 152.869 153.184V137.344H148.789V133.84H152.869ZM180.814 159.664V155.968C179.326 158.416 176.974 160.288 172.702 160.288C166.75 160.288 164.446 156.256 164.446 150.352V133.84H168.814V149.056C168.814 153.04 169.438 156.496 174.238 156.496C178.414 156.496 180.814 153.616 180.814 148.048V133.84H185.182V159.664H180.814ZM202.575 133.744V138.4C201.663 138.256 200.847 138.208 200.127 138.208C196.095 138.208 194.079 140.416 194.079 146.128V159.664H189.711V133.84H193.983V138.352C195.279 135.424 197.871 133.84 201.279 133.696C201.711 133.696 202.047 133.696 202.575 133.744ZM226.705 148.192H206.833C206.977 153.76 211.009 156.448 214.801 156.448C218.641 156.448 220.753 154.72 221.857 152.176H226.369C225.217 156.592 221.089 160.288 214.801 160.288C206.641 160.288 202.129 154.432 202.129 146.8C202.129 138.592 207.601 133.408 214.657 133.408C222.577 133.408 227.233 139.984 226.705 148.192ZM214.657 137.152C210.817 137.152 207.265 139.264 206.881 144.448H222.097C221.953 140.8 219.313 137.152 214.657 137.152Z" fill="black"/>
<defs>
<filter id="filter0_d_636_348" x="0.191035" y="0.199824" width="247.454" height="98.1746" filterUnits="userSpaceOnUse" color-interpolation-filters="sRGB">
<feFlood flood-opacity="0" result="BackgroundImageFix"/>
<feColorMatrix in="SourceAlpha" type="matrix" values="0 0 0 0 0 0 0 0 0 0 0 0 0 0 0 0 0 0 127 0" result="hardAlpha"/>
<feOffset/>
<feGaussianBlur stdDeviation="1.05634"/>
<feComposite in2="hardAlpha" operator="out"/>
<feColorMatrix type="matrix" values="0 0 0 0 0 0 0 0 0 0 0 0 0 0 0 0 0 0 0.35 0"/>
<feBlend mode="normal" in2="BackgroundImageFix" result="effect1_dropShadow_636_348"/>
<feBlend mode="normal" in="SourceGraphic" in2="effect1_dropShadow_636_348" result="shape"/>
</filter>
<filter id="filter1_d_636_348" x="71.8053" y="102.551" width="174.225" height="79.2254" filterUnits="userSpaceOnUse" color-interpolation-filters="sRGB">
<feFlood flood-opacity="0" result="BackgroundImageFix"/>
<feColorMatrix in="SourceAlpha" type="matrix" values="0 0 0 0 0 0 0 0 0 0 0 0 0 0 0 0 0 0 127 0" result="hardAlpha"/>
<feOffset/>
<feGaussianBlur stdDeviation="1.05634"/>
<feComposite in2="hardAlpha" operator="out"/>
<feColorMatrix type="matrix" values="0 0 0 0 0 0 0 0 0 0 0 0 0 0 0 0 0 0 0.35 0"/>
<feBlend mode="normal" in2="BackgroundImageFix" result="effect1_dropShadow_636_348"/>
<feBlend mode="normal" in="SourceGraphic" in2="effect1_dropShadow_636_348" result="shape"/>
</filter>
</defs>
</svg>
