<svg width="1608" height="834" viewBox="0 0 1608 834" fill="none" xmlns="http://www.w3.org/2000/svg">
<circle cx="532.5" cy="327.5" r="43.5" fill="#F5F5F5" stroke="black" stroke-width="2"/>
<path d="M523.408 307.002L538.674 307.002L552.119 320.239L554.363 322.448L557 325.045L557 330.465L554.334 333.09L552.119 335.271L538.837 348.348L523.571 348.348L539.068 333.09L507 333.09L507 322.448L539.087 322.448L523.408 307.002Z" fill="black"/>
<circle cx="44.5" cy="44.5" r="43.5" transform="matrix(-1 0 0 1 577 710)" fill="#F5F5F5" stroke="black" stroke-width="2"/>
<path d="M541.592 734.002L526.326 734.002L512.881 747.239L510.637 749.448L508 752.045L508 757.465L510.666 760.09L512.881 762.271L526.163 775.348L541.429 775.348L525.932 760.09L558 760.09L558 749.448L525.913 749.448L541.592 734.002Z" fill="black"/>
<circle cx="1074.5" cy="327.5" r="43.5" fill="#F5F5F5" stroke="black" stroke-width="2"/>
<path d="M1065.41 307.002L1080.67 307.002L1094.12 320.239L1096.36 322.448L1099 325.045L1099 330.465L1096.33 333.09L1094.12 335.271L1080.84 348.348L1065.57 348.348L1081.07 333.09L1049 333.09L1049 322.448L1081.09 322.448L1065.41 307.002Z" fill="black"/>
<circle cx="1536.5" cy="415.5" r="43.5" transform="rotate(90 1536.5 415.5)" fill="#F5F5F5" stroke="black" stroke-width="2"/>
<path d="M1557 406.408V421.674L1543.76 435.119L1541.55 437.363L1538.96 440H1533.54L1530.91 437.334L1528.73 435.119L1515.65 421.837V406.571L1530.91 422.068V390H1541.55V422.087L1557 406.408Z" fill="black"/>
<circle cx="44.5" cy="44.5" r="43.5" transform="matrix(-1 0 0 1 1119 710)" fill="#F5F5F5" stroke="black" stroke-width="2"/>
<path d="M1083.59 734.002L1068.33 734.002L1054.88 747.239L1052.64 749.448L1050 752.045L1050 757.465L1052.67 760.09L1054.88 762.271L1068.16 775.348L1083.43 775.348L1067.93 760.09L1100 760.09L1100 749.448L1067.91 749.448L1083.59 734.002Z" fill="black"/>
</svg>
