<svg width="48" height="48" viewBox="0 0 48 48" fill="none" xmlns="http://www.w3.org/2000/svg">
<path d="M8.25 3L10.17 7.26L42.27 7.36C43.45 7.86 43.96 9.34 43.36 10.47C40.54 14.57 38.56 20.41 35.72 24.33C34.49 26.03 33.18 26.35 31.15 26.51C26.92 26.83 21.96 26.48 17.63 26.51C17.2 26.51 16.79 26.44 16.38 26.33C16.17 26.36 14.33 29.65 14.27 30.13C14.21 30.61 14.53 30.61 14.89 30.62C22.79 30.71 30.74 30.32 38.66 30.49L39.52 30.88V34.63L38.66 35.02C30.85 34.53 22.36 35.62 14.64 35.02C12.75 34.87 10.87 34.23 10.05 32.36C8.61 29.1 12.12 26.1 12.99 23.19L5.5 7.25H1V3H8.25Z" fill="black"/>
<path d="M12.9295 37.0599C18.5695 35.8899 20.0595 44.3599 14.8195 45.4399C9.17953 46.6099 7.68953 38.1399 12.9295 37.0599Z" fill="black"/>
<path d="M34.1795 37.0599C39.8195 35.8899 41.3095 44.3599 36.0695 45.4399C30.4295 46.6099 28.9395 38.1399 34.1795 37.0599Z" fill="black"/>
</svg>
