<svg width="237" height="210" viewBox="0 0 237 210" fill="none" xmlns="http://www.w3.org/2000/svg">
<path d="M50.4 35.33C50.4 14 37.62 11.21 24.57 11.21H17.46V59.54H24.57C37.62 59.54 50.4 56.84 50.4 35.33ZM7.2 2.75H25.02C45.72 2.75 61.02 10.22 61.02 35.33C61.02 60.53 45.72 68 25.02 68H7.2V2.75ZM87.8843 61.16C94.7243 61.16 98.5043 58.37 100.574 53.78H110.024C107.864 61.79 100.484 69.17 88.2443 69.17C72.6743 69.17 64.1243 57.74 64.1243 43.7C64.1243 28.67 74.2043 18.68 87.9743 18.68C102.914 18.68 111.644 30.92 110.654 46.67H73.7543C74.7443 55.67 80.2343 61.16 87.8843 61.16ZM87.8843 26.33C80.5943 26.33 75.2843 30.02 73.9343 39.29H100.934C100.664 32.18 95.5343 26.33 87.8843 26.33ZM102.644 2.75L90.4043 13.19H82.9343L91.1243 2.75H102.644ZM115.337 69.89V19.58H124.697V69.62C124.697 80.78 122.177 83.75 112.007 83.75H108.137V76.19H110.297C114.617 76.19 115.337 75.02 115.337 69.89ZM115.337 2.75H124.697V13.1H115.337V2.75ZM163.05 48.47V44.96C148.02 46.4 140.1 48.56 140.1 54.77C140.1 59.18 143.52 61.97 149.28 61.97C156.93 61.97 163.05 58.1 163.05 48.47ZM147.21 69.17C137.4 69.17 129.93 63.77 129.93 54.95C129.93 43.16 143.88 39.92 162.6 38.03V37.04C162.6 28.49 158.1 25.61 152.16 25.61C145.68 25.61 141.99 28.85 141.63 34.88H132.18C132.9 24.53 141.45 18.41 152.52 18.41C165.03 18.41 172.14 24.44 172.05 38.93C172.05 40.1 171.87 48.47 171.87 50.54C171.87 57.83 172.32 63.68 173.22 68H164.22C163.86 66.11 163.68 64.76 163.41 61.61C160.53 66.56 155.13 69.17 147.21 69.17ZM149.01 13.19L136.77 2.75H148.29L156.57 13.19H149.01ZM10.35 89.58L22.59 125.49L34.74 89.58H44.46L26.55 138H18L0 89.58H10.35ZM76.1527 138V131.16C73.3627 136.11 68.6827 139.17 61.3927 139.17C49.9627 139.17 45.5527 132.15 45.5527 120.36V89.58H54.9127V117.84C54.9127 124.77 56.0827 131.25 64.5427 131.25C72.4627 131.25 76.2427 125.49 76.2427 115.86V89.58H85.6027V138H76.1527ZM43.11 173.08H33.84C32.49 168.04 28.35 166.15 22.86 166.15C18.27 166.15 13.32 168.04 13.32 172C13.32 175.6 15.66 177.04 20.07 178.03L27 179.38C36.09 181.27 44.19 184.24 44.19 193.78C44.19 203.59 35.01 209.17 23.85 209.17C11.52 209.17 4.14 202.06 2.97 192.97H12.51C13.86 198.46 17.28 201.7 24.12 201.7C30.24 201.7 34.83 199.18 34.83 194.86C34.83 190.45 30.6 188.56 25.56 187.57L18.27 186.13C10.98 184.69 4.14 181.54 4.14 172.36C4.14 163.81 13.23 158.59 23.76 158.59C33.57 158.59 41.22 163.72 43.11 173.08ZM50.9752 159.58V147.16H60.3352V159.58H69.8752V166.69H60.3352V194.32C60.3352 199.27 61.1452 200.53 65.8252 200.53H69.7852V208H62.9452C53.1352 208 50.9752 205.57 50.9752 195.58V166.69H43.5952V159.58H50.9752ZM104.348 208V201.16C101.558 206.11 96.878 209.17 89.588 209.17C78.158 209.17 73.748 202.15 73.748 190.36V159.58H83.108V187.84C83.108 194.77 84.278 201.25 92.738 201.25C100.658 201.25 104.438 195.49 104.438 185.86V159.58H113.798V208H104.348ZM154.493 166.69V142.75H163.853V208H154.493V201.16C151.523 206.2 146.573 209.17 139.373 209.17C128.123 209.17 118.493 199.72 118.493 183.88C118.493 168.04 128.123 158.68 139.373 158.68C146.573 158.68 151.523 161.65 154.493 166.69ZM154.853 183.88C154.853 171.91 148.733 166.51 141.533 166.51C133.703 166.51 128.483 172.99 128.483 183.88C128.483 194.77 133.703 201.34 141.533 201.34C148.733 201.34 154.853 195.85 154.853 183.88ZM171.991 159.58H181.351V208H171.991V159.58ZM171.991 142.75H181.351V153.1H171.991V142.75ZM196.124 183.97C196.124 195.85 202.694 201.25 209.714 201.25C216.914 201.25 223.394 195.76 223.394 183.97C223.394 172 216.914 166.6 209.714 166.6C202.694 166.6 196.124 171.73 196.124 183.97ZM209.714 158.68C221.234 158.68 233.294 166.42 233.294 183.97C233.294 201.43 221.234 209.17 209.714 209.17C198.284 209.17 186.224 201.43 186.224 183.97C186.224 166.42 198.284 158.68 209.714 158.68Z" fill="black"/>
<path d="M104.111 121.399L112.245 135.491L104.599 137.919C103.484 138.275 102.273 137.804 101.689 136.792L97.7466 129.962C97.1678 128.96 97.3576 127.686 98.2069 126.896L104.111 121.399Z" fill="black"/>
<path d="M118.695 107.778L131.234 129.502L121.667 132.537L111.331 114.63L118.695 107.778Z" fill="black"/>
<path d="M137.579 82.0222L162.53 125.248C162.855 125.812 162.525 126.527 161.883 126.644L156.096 127.696C155.856 127.739 155.616 127.628 155.494 127.416L153.072 123.22C152.896 122.916 152.532 122.774 152.197 122.882L140.653 126.545L125.913 101.008L134.803 92.7331C135.059 92.4964 135.117 92.1138 134.943 91.8113L132.618 87.7846C132.51 87.5966 132.515 87.3659 132.632 87.1834L135.973 81.9843C136.353 81.3902 137.226 81.4106 137.579 82.0222Z" fill="black"/>
<g clip-path="url(#clip0_513_1724)">
<path d="M148.74 13.24L136.378 3H148.013L156.376 13.24H148.74Z" fill="black"/>
<path d="M101.907 3L89.5447 13.24H82L90.2719 3H101.907Z" fill="black"/>
</g>
<defs>
<clipPath id="clip0_513_1724">
<rect width="74.3764" height="10.24" fill="white" transform="translate(82 3)"/>
</clipPath>
</defs>
</svg>
