<svg width="1050" height="470" viewBox="0 0 1050 470" fill="none" xmlns="http://www.w3.org/2000/svg">
<g filter="url(#filter0_d_598_349)">
<rect x="209.478" y="0.00390625" width="75" height="220" rx="15" transform="rotate(72.2082 209.478 0.00390625)" fill="white"/>
</g>
<rect x="205.903" y="8.49992" width="63" height="208" rx="12" transform="rotate(72.2082 205.903 8.49992)" fill="#C8FF03" stroke="black" stroke-width="2"/>
<path d="M53.7553 107.736L48.8193 109.32L30.409 83.3684L39.6784 112.254L35.0166 113.75L24.3831 80.6139L32.1985 78.1059L49.5126 102.998L49.1091 72.6792L56.9246 70.1711L67.558 103.307L62.8962 104.803L53.6268 75.9176L53.7553 107.736ZM71.4021 88.6134C73.5141 95.1948 77.9004 96.6103 81.6938 95.3929C85.4873 94.1756 88.1429 90.1979 86.1189 83.8907C84.0068 77.3093 79.6206 75.8938 75.8271 77.1112C72.0336 78.3285 69.2461 81.8949 71.4021 88.6134ZM74.6538 73.4549C80.3668 71.6215 87.6921 73.5557 90.5522 82.468C93.4122 91.3803 88.5802 97.2159 82.8672 99.0493C77.1542 100.883 69.8288 98.9484 66.9688 90.0361C64.1087 81.1238 68.9407 75.2882 74.6538 73.4549ZM99.684 65.4225C105.717 63.4864 110.796 66.7464 112.74 70.7605L108.535 72.1099C107.002 69.3755 103.828 68.1255 100.583 69.1668C96.9268 70.3402 94.423 74.3195 96.403 80.4896C98.3977 86.7054 102.794 88.6219 106.45 87.4485C109.969 86.3192 111.629 83.1652 111.402 80.4151L115.698 79.0364C116.311 83.9312 113.245 89.3008 107.486 91.1489C100.402 93.4222 94.2983 89.4828 91.8929 81.9873C89.5462 74.6747 92.417 67.7545 99.684 65.4225ZM110.037 53.127L114.196 51.7923L120.488 71.3994L126.857 57.1563L131.975 55.5136L125.877 68.7124L141.146 79.6918L136.073 81.3199L124.071 72.6692L122.189 76.7011L124.829 84.9279L120.67 86.2626L110.037 53.127ZM156.68 74.7068L155.551 71.1876C154.882 73.9732 153.214 76.4743 149.147 77.7797C143.479 79.5984 140.053 76.4632 138.249 70.8416L133.204 55.1193L137.363 53.7846L142.013 68.2729C143.23 72.0663 144.88 75.1664 149.451 73.6997C153.427 72.4237 154.832 68.9481 153.131 63.6464L148.789 50.1179L152.948 48.7832L160.839 73.3721L156.68 74.7068ZM157.261 47.3993L161.42 46.0646L162.667 49.9495C163.339 46.8603 165.356 44.3479 169.332 43.0719C174.999 41.2532 181.369 44.4518 183.951 52.4957C186.576 60.6768 183.213 66.8476 177.545 68.6663C173.569 69.9423 170.467 69.0726 168.123 66.9515L171.878 78.6518L167.718 79.9864L157.261 47.3993ZM165.212 58.5091C167.295 64.9991 171.648 66.6267 175.35 65.4387C179.601 64.0747 181.318 59.8436 179.426 53.9477C177.534 48.0519 173.675 45.6101 169.425 46.9742C165.723 48.1622 163.129 52.0191 165.212 58.5091ZM203.281 40.5458L198.939 41.9391C197.314 39.234 194.754 38.7955 191.829 39.7341C189.407 40.5115 186.943 42.2599 187.662 44.4994C188.292 46.4647 189.942 46.893 192.48 46.6331L196.174 46.204C200.917 45.5893 205.419 46.1104 206.93 50.818C208.499 55.7083 204.992 59.8586 199.37 61.6626C192.926 63.7307 187.951 60.6388 186.07 56.504L190.457 55.096C192.155 58.0296 194.676 59.2874 198.332 58.1141C201.486 57.1021 203.62 54.9553 202.872 52.6244C202.065 50.1106 199.426 49.8989 196.585 50.1554L192.694 50.5975C189.122 50.9369 184.997 50.6477 183.515 46.0315C182.122 41.6896 185.703 37.7679 191.142 36.0225C196.489 34.3065 200.993 36.0876 203.281 40.5458Z" fill="black"/>
<g filter="url(#filter1_d_598_349)">
<rect x="221.076" y="200.578" width="75" height="200" rx="15" transform="rotate(103.87 221.076 200.578)" fill="white"/>
</g>
<rect x="213.813" y="204.965" width="63" height="188" rx="12" transform="rotate(103.87 213.813 204.965)" fill="#FF4702" stroke="black" stroke-width="2"/>
<path d="M39.2827 212.339L46.6126 182.655L35.6149 179.939L36.6276 175.838L63.3761 182.443L62.3635 186.544L51.3659 183.828L44.036 213.513L39.2827 212.339ZM77.2227 209.891L57.9301 205.127C56.7351 210.567 60.0052 214.143 63.6866 215.053C67.4146 215.973 69.8793 214.802 71.561 212.597L75.9414 213.678C73.7644 217.689 68.8707 220.288 62.766 218.781C54.844 216.824 51.8674 210.057 53.697 202.648C55.6647 194.679 62.2199 190.958 69.0701 192.65C76.7592 194.548 79.703 202.049 77.2227 209.891ZM68.1726 196.285C64.4446 195.364 60.4898 196.563 58.8743 201.504L73.6466 205.151C74.3813 201.575 72.6928 197.401 68.1726 196.285ZM102.395 201.324L90.9095 211.194L97.0427 226.602L91.9633 225.347L87.5186 214.114L78.4026 221.999L73.5562 220.802L85.9704 210.172L80.3061 195.869L85.3855 197.124L89.3614 207.252L97.6414 200.15L102.395 201.324ZM105.821 202.17L107.375 195.879L111.615 196.926L110.062 203.217L114.815 204.391L113.975 207.792L109.222 206.619L105.551 221.484C104.907 224.094 104.932 224.792 107.355 225.391L109.499 225.92L108.624 229.462L105.549 228.702C100.749 227.517 99.8952 226.169 101.184 220.95L104.981 205.572L101.02 204.593L101.86 201.192L105.821 202.17ZM126.761 233.94L127.647 230.352C125.616 232.372 122.883 233.625 118.736 232.601C112.958 231.174 111.687 226.707 113.103 220.976L117.061 204.945L121.302 205.992L117.654 220.765C116.699 224.632 116.476 228.137 121.136 229.288C125.19 230.289 128.211 228.068 129.546 222.663L132.952 208.869L137.192 209.916L131.002 234.987L126.761 233.94ZM154.101 213.993L152.985 218.513C152.134 218.154 151.354 217.912 150.655 217.74C146.74 216.773 144.254 218.433 142.884 223.979L139.639 237.12L135.399 236.073L141.59 211.002L145.737 212.026L144.655 216.406C146.615 213.874 149.512 212.958 152.855 213.635C153.274 213.739 153.6 213.819 154.101 213.993ZM174.064 233.804L154.771 229.04C153.576 234.48 156.846 238.056 160.528 238.965C164.256 239.886 166.721 238.715 168.402 236.509L172.783 237.591C170.606 241.602 165.712 244.201 159.607 242.693C151.685 240.737 148.709 233.97 150.538 226.561C152.506 218.592 159.061 214.871 165.911 216.563C173.6 218.461 176.544 225.962 174.064 233.804ZM165.014 220.197C161.286 219.277 157.331 220.476 155.716 225.417L170.488 229.064C171.223 225.488 169.534 221.314 165.014 220.197ZM197.181 232.491L192.754 231.398C192.791 228.243 190.842 226.526 187.86 225.789C185.39 225.179 182.375 225.374 181.812 227.658C181.317 229.662 182.496 230.892 184.793 232.003L188.162 233.577C192.522 235.543 196.08 238.35 194.895 243.15C193.664 248.136 188.5 249.828 182.768 248.412C176.197 246.79 173.586 241.547 174.155 237.04L178.629 238.145C178.534 241.533 180.019 243.927 183.747 244.847C186.963 245.641 189.906 244.934 190.493 242.558C191.126 239.994 188.991 238.429 186.438 237.156L182.894 235.49C179.676 233.904 176.316 231.492 177.478 226.786C178.572 222.359 183.678 220.9 189.223 222.27C194.676 223.616 197.574 227.496 197.181 232.491Z" fill="black"/>
<g filter="url(#filter2_d_598_349)">
<rect x="862.17" y="394.611" width="75" height="255" rx="15" transform="rotate(96.9097 862.17 394.611)" fill="white"/>
</g>
<rect x="855.491" y="399.847" width="63" height="243" rx="12" transform="rotate(96.9097 855.491 399.847)" fill="white" stroke="black" stroke-width="2"/>
<path d="M645.989 412.647L650.707 413.219C648.258 420.658 641.817 423.939 634.335 423.032C624.424 421.831 619.565 413.651 620.835 403.168C622.129 392.494 629.332 386.114 639.053 387.292C646.201 388.159 651.405 393.093 652.035 400.663L647.318 400.092C646.842 395.634 643.798 392.026 638.318 391.362C632.219 390.622 626.876 394.81 625.791 403.769C624.728 412.536 628.685 418.19 635.118 418.969C640.645 419.639 644.356 416.946 645.989 412.647ZM656.888 412.227C656.056 419.089 659.45 422.208 663.405 422.687C667.36 423.166 671.435 420.662 672.232 414.087C673.063 407.225 669.67 404.106 665.715 403.627C661.76 403.147 657.737 405.222 656.888 412.227ZM666.177 399.814C672.133 400.536 677.98 405.355 676.854 414.647C675.728 423.939 668.899 427.221 662.943 426.499C656.987 425.777 651.14 420.959 652.266 411.667C653.392 402.375 660.22 399.093 666.177 399.814ZM686.639 393.688L682.452 428.235L678.116 427.709L682.303 393.162L686.639 393.688ZM695.471 394.758L691.285 429.305L686.948 428.78L691.135 394.233L695.471 394.758ZM719.795 421.204L700.067 418.814C699.541 424.359 703.22 427.512 706.984 427.968C710.796 428.43 713.101 426.969 714.503 424.576L718.982 425.119C717.307 429.364 712.765 432.537 706.522 431.78C698.422 430.799 694.647 424.442 695.565 416.866C696.553 408.717 702.608 404.229 709.613 405.078C717.476 406.031 721.307 413.119 719.795 421.204ZM709.163 408.795C705.351 408.333 701.57 410.002 700.566 415.103L715.671 416.933C715.967 413.294 713.785 409.355 709.163 408.795ZM735.104 408.167C741.394 408.93 744.646 414.014 744.734 418.473L740.35 417.941C740.1 414.817 737.739 412.355 734.356 411.945C730.544 411.483 726.606 414.052 725.826 420.485C725.041 426.965 728.234 430.543 732.046 431.005C735.715 431.45 738.541 429.278 739.484 426.685L743.963 427.228C742.474 431.931 737.445 435.528 731.441 434.8C724.055 433.905 720.156 427.776 721.103 419.961C722.027 412.336 727.527 407.249 735.104 408.167ZM749.807 410.384L750.586 403.951L754.922 404.477L754.143 410.91L759.003 411.499L758.582 414.977L753.721 414.388L751.879 429.589C751.556 432.258 751.666 432.948 754.143 433.248L756.335 433.514L755.897 437.135L752.752 436.754C747.843 436.159 746.833 434.925 747.479 429.588L749.385 413.863L745.335 413.372L745.756 409.893L749.807 410.384ZM762.146 411.88L766.483 412.405L763.376 438.042L759.04 437.516L762.146 411.88ZM763.226 402.969L767.562 403.494L766.927 408.736L762.591 408.211L763.226 402.969ZM772.368 426.222C771.537 433.083 774.93 436.202 778.885 436.682C782.84 437.161 786.915 434.657 787.712 428.081C788.543 421.219 785.15 418.1 781.195 417.621C777.24 417.142 773.217 419.217 772.368 426.222ZM781.657 413.809C787.613 414.531 793.46 419.349 792.334 428.641C791.208 437.933 784.38 441.215 778.423 440.494C772.467 439.772 766.62 434.953 767.746 425.661C768.872 416.369 775.7 413.087 781.657 413.809ZM801.039 416.593L800.571 420.453C802.343 418.201 805.046 416.643 809.383 417.169C815.577 417.919 817.332 422.194 816.621 428.055L814.658 444.256L810.322 443.731L812.129 428.816C812.609 424.861 812.357 421.349 807.401 420.748C803.208 420.24 800.288 422.788 799.619 428.315L797.932 442.229L793.596 441.704L796.703 416.067L801.039 416.593ZM840.166 428.926L835.639 428.377C835.294 425.241 833.151 423.772 830.101 423.403C827.576 423.097 824.607 423.655 824.324 425.99C824.075 428.039 825.395 429.118 827.81 429.942L831.345 431.096C835.91 432.52 839.783 434.875 839.188 439.783C838.571 444.881 833.65 447.186 827.788 446.476C821.07 445.662 817.842 440.774 817.861 436.231L822.435 436.786C822.752 440.16 824.516 442.356 828.328 442.818C831.616 443.217 834.452 442.158 834.747 439.728C835.064 437.107 832.755 435.812 830.067 434.858L826.347 433.633C822.961 432.449 819.333 430.462 819.917 425.65C820.465 421.123 825.357 419.056 831.028 419.744C836.603 420.419 839.95 423.919 840.166 428.926Z" fill="black"/>
<g filter="url(#filter3_d_598_349)">
<rect x="1016.34" y="187.004" width="75" height="240" rx="15" transform="rotate(64.0251 1016.34 187.004)" fill="white"/>
</g>
<rect x="1013.57" y="195.024" width="63" height="228" rx="12" transform="rotate(64.0251 1013.57 195.024)" fill="#FF4702" stroke="black" stroke-width="2"/>
<path d="M847.44 330.47L834.048 302.983L823.865 307.944L822.015 304.147L846.784 292.08L848.634 295.877L838.45 300.838L851.841 328.326L847.44 330.47ZM875.001 304.282L857.136 312.985C859.704 317.928 864.506 318.578 867.915 316.917C871.367 315.236 872.509 312.757 872.387 309.987L876.444 308.01C877.342 312.485 875.25 317.616 869.597 320.37C862.261 323.943 855.64 320.655 852.298 313.794C848.703 306.415 851.352 299.358 857.695 296.268C864.815 292.799 871.881 296.672 875.001 304.282ZM859.335 299.634C855.883 301.315 853.614 304.77 855.54 309.598L869.219 302.934C867.491 299.718 863.52 297.594 859.335 299.634ZM880.232 298.903L886.371 311.503L882.444 313.416L871.134 290.201L875.061 288.288L876.764 291.783C877.029 288.931 878.367 286.197 881.862 284.494C885.444 282.749 888.251 283.25 890.548 285.335C890.995 281.54 893.081 279.028 896.361 277.43C901.755 274.802 905.635 277.397 908.221 282.705L915.369 297.376L911.442 299.289L904.862 285.783C903.117 282.201 900.913 279.431 896.641 281.512C893.232 283.173 892.292 286.834 894.731 291.839L900.87 304.44L896.943 306.353L890.363 292.846C888.618 289.265 886.414 286.494 882.142 288.576C878.733 290.236 877.794 293.898 880.232 298.903ZM907.787 272.344L911.714 270.431L913.501 274.099C913.727 270.945 915.365 268.171 919.119 266.342C924.47 263.736 931.231 265.995 934.931 273.59C938.694 281.314 936.243 287.9 930.892 290.507C927.138 292.336 923.944 291.917 921.321 290.151L926.703 301.198L922.777 303.111L907.787 272.344ZM917.239 282.209C920.224 288.336 924.765 289.328 928.26 287.625C932.273 285.67 933.371 281.237 930.659 275.671C927.947 270.104 923.78 268.237 919.767 270.192C916.271 271.895 914.253 276.081 917.239 282.209ZM931.668 250.725L946.909 282.01L942.982 283.923L927.741 252.638L931.668 250.725ZM960.879 263.19L960.164 261.723C953.38 265.882 949.375 269.169 950.931 272.362C952.003 274.563 954.401 275.21 957.205 273.843C960.873 272.056 963.549 268.671 960.879 263.19ZM957.856 277.371C953.498 279.494 948.696 278.843 946.615 274.571C943.945 269.091 949.36 264.424 958.348 258.763L958.075 258.203C955.994 253.931 952.991 253.685 950.057 255.114C946.777 256.712 945.762 259.342 946.998 262.318L942.942 264.294C940.849 259.12 943.97 254.129 948.458 251.942C954.887 248.81 959.207 250.443 962.359 257.023L964.923 262.395C966.793 266.343 968.248 268.891 969.795 270.86L965.825 272.794C965.275 271.994 964.683 271.108 963.967 269.748C963.72 272.859 961.999 275.352 957.856 277.371ZM962.739 245.572L959.901 239.747L963.827 237.834L966.666 243.659L971.067 241.515L972.602 244.665L968.2 246.809L974.907 260.574C976.084 262.991 976.551 263.511 978.795 262.418L980.78 261.451L982.377 264.73L979.529 266.118C975.085 268.283 973.566 267.795 971.211 262.962L964.273 248.722L960.606 250.509L959.071 247.359L962.739 245.572ZM1000.06 243.352L982.199 252.056C984.767 256.998 989.569 257.649 992.978 255.988C996.43 254.306 997.572 251.828 997.451 249.057L1001.51 247.081C1002.41 251.555 1000.31 256.686 994.66 259.44C987.324 263.014 980.703 259.726 977.361 252.865C973.766 245.486 976.415 238.429 982.758 235.338C989.878 231.87 996.944 235.742 1000.06 243.352ZM984.398 238.704C980.946 240.386 978.677 243.84 980.603 248.669L994.282 242.005C992.554 238.788 988.583 236.665 984.398 238.704ZM1016.97 227.533L1012.87 229.53C1010.88 227.084 1008.28 227.014 1005.52 228.36C1003.23 229.474 1001.04 231.555 1002.07 233.67C1002.98 235.525 1004.67 235.714 1007.15 235.096L1010.74 234.145C1015.35 232.862 1019.88 232.737 1022.05 237.181C1024.3 241.798 1021.41 246.406 1016.11 248.992C1010.02 251.956 1004.66 249.604 1002.21 245.779L1006.35 243.76C1008.45 246.422 1011.12 247.309 1014.57 245.627C1017.55 244.176 1019.36 241.748 1018.29 239.547C1017.13 237.174 1014.49 237.34 1011.71 237.998L1007.92 238.989C1004.44 239.834 1000.31 240.135 998.189 235.776C996.192 231.677 999.178 227.285 1004.31 224.784C1009.36 222.324 1014.07 223.446 1016.97 227.533Z" fill="black"/>
<defs>
<filter id="filter0_d_598_349" x="1.74865" y="1.75451" width="228.896" height="135.136" filterUnits="userSpaceOnUse" color-interpolation-filters="sRGB">
<feFlood flood-opacity="0" result="BackgroundImageFix"/>
<feColorMatrix in="SourceAlpha" type="matrix" values="0 0 0 0 0 0 0 0 0 0 0 0 0 0 0 0 0 0 127 0" result="hardAlpha"/>
<feOffset/>
<feGaussianBlur stdDeviation="1.05634"/>
<feComposite in2="hardAlpha" operator="out"/>
<feColorMatrix type="matrix" values="0 0 0 0 0 0 0 0 0 0 0 0 0 0 0 0 0 0 0.35 0"/>
<feBlend mode="normal" in2="BackgroundImageFix" result="effect1_dropShadow_598_349"/>
<feBlend mode="normal" in="SourceGraphic" in2="effect1_dropShadow_598_349" result="shape"/>
</filter>
<filter id="filter1_d_598_349" x="9.97131" y="153.676" width="210.062" height="118.671" filterUnits="userSpaceOnUse" color-interpolation-filters="sRGB">
<feFlood flood-opacity="0" result="BackgroundImageFix"/>
<feColorMatrix in="SourceAlpha" type="matrix" values="0 0 0 0 0 0 0 0 0 0 0 0 0 0 0 0 0 0 127 0" result="hardAlpha"/>
<feOffset/>
<feGaussianBlur stdDeviation="1.05634"/>
<feComposite in2="hardAlpha" operator="out"/>
<feColorMatrix type="matrix" values="0 0 0 0 0 0 0 0 0 0 0 0 0 0 0 0 0 0 0.35 0"/>
<feBlend mode="normal" in2="BackgroundImageFix" result="effect1_dropShadow_598_349"/>
<feBlend mode="normal" in="SourceGraphic" in2="effect1_dropShadow_598_349" result="shape"/>
</filter>
<filter id="filter2_d_598_349" x="599.581" y="363.514" width="263.008" height="105.971" filterUnits="userSpaceOnUse" color-interpolation-filters="sRGB">
<feFlood flood-opacity="0" result="BackgroundImageFix"/>
<feColorMatrix in="SourceAlpha" type="matrix" values="0 0 0 0 0 0 0 0 0 0 0 0 0 0 0 0 0 0 127 0" result="hardAlpha"/>
<feOffset/>
<feGaussianBlur stdDeviation="1.05634"/>
<feComposite in2="hardAlpha" operator="out"/>
<feColorMatrix type="matrix" values="0 0 0 0 0 0 0 0 0 0 0 0 0 0 0 0 0 0 0.35 0"/>
<feBlend mode="normal" in2="BackgroundImageFix" result="effect1_dropShadow_598_349"/>
<feBlend mode="normal" in="SourceGraphic" in2="effect1_dropShadow_598_349" result="shape"/>
</filter>
<filter id="filter3_d_598_349" x="803.521" y="189.942" width="242.728" height="166.663" filterUnits="userSpaceOnUse" color-interpolation-filters="sRGB">
<feFlood flood-opacity="0" result="BackgroundImageFix"/>
<feColorMatrix in="SourceAlpha" type="matrix" values="0 0 0 0 0 0 0 0 0 0 0 0 0 0 0 0 0 0 127 0" result="hardAlpha"/>
<feOffset/>
<feGaussianBlur stdDeviation="1.05634"/>
<feComposite in2="hardAlpha" operator="out"/>
<feColorMatrix type="matrix" values="0 0 0 0 0 0 0 0 0 0 0 0 0 0 0 0 0 0 0.35 0"/>
<feBlend mode="normal" in2="BackgroundImageFix" result="effect1_dropShadow_598_349"/>
<feBlend mode="normal" in="SourceGraphic" in2="effect1_dropShadow_598_349" result="shape"/>
</filter>
</defs>
</svg>
